<svg width="36" height="36" viewBox="0 0 36 36" fill="none" xmlns="http://www.w3.org/2000/svg">
<path d="M24 3V6.3C24 6.61826 23.8736 6.92348 23.6485 7.14853C23.4235 7.37357 23.1183 7.5 22.8 7.5H13.2C12.8817 7.5 12.5765 7.37357 12.3515 7.14853C12.1264 6.92348 12 6.61826 12 6.3V3M8.1 3H27.9C28.8548 3 29.7705 3.37928 30.4456 4.05442C31.1207 4.72955 31.5 5.64522 31.5 6.6V29.4C31.5 30.3548 31.1207 31.2705 30.4456 31.9456C29.7705 32.6207 28.8548 33 27.9 33H8.1C7.62724 33 7.15911 32.9069 6.72234 32.726C6.28557 32.5451 5.88871 32.2799 5.55442 31.9456C4.87928 31.2705 4.5 30.3548 4.5 29.4V6.6C4.5 6.12724 4.59312 5.65911 4.77403 5.22234C4.95495 4.78557 5.22012 4.38871 5.55442 4.05442C6.22955 3.37928 7.14522 3 8.1 3Z" stroke="white" stroke-width="2" stroke-miterlimit="10" stroke-linecap="round" stroke-linejoin="round"/>
<path d="M26.4346 15.6074V23.3848H24.8125V17.1436H24.7695L22.9863 18.2607V16.832L24.9092 15.6074H26.4346Z" fill="white"/>
<path d="M16.3691 23.3848L16.3584 22.2139L19.1514 19.6465C19.8818 18.9482 20.2686 18.5186 20.2686 17.9062C20.2686 17.2188 19.7422 16.7891 19.0332 16.7891C18.3027 16.7891 17.8301 17.251 17.8301 17.9922H16.2939C16.2832 16.4668 17.4111 15.5 19.0547 15.5C20.7197 15.5 21.8262 16.4453 21.8262 17.7988C21.8262 18.6797 21.3965 19.4102 19.7959 20.8604L18.6143 22.0098V22.0527H21.9336V23.3848H16.3691Z" fill="white"/>
<path d="M12.126 23.4922C10.1816 23.4922 9 22.042 9 19.4961C9 16.9502 10.1816 15.5 12.126 15.5C14.0703 15.5 15.252 16.9609 15.252 19.4961C15.252 22.0527 14.0703 23.4922 12.126 23.4922ZM12.126 22.1602C13.0283 22.1602 13.6084 21.29 13.5977 19.4961C13.5977 17.7236 13.0283 16.8213 12.126 16.8213C11.2236 16.8213 10.6543 17.7236 10.6543 19.4961C10.6436 21.29 11.2236 22.1602 12.126 22.1602Z" fill="white"/>
<rect x="12" y="3" width="12" height="4" fill="white"/>
</svg>
