<svg width="36" height="36" viewBox="0 0 36 36" fill="none" xmlns="http://www.w3.org/2000/svg">
<path d="M7.2 17.55L3.45 13.8C3.15 13.5 3 13.15 3 12.75C3 12.35 3.15 12 3.45 11.7L7.2 7.95C7.5 7.65 7.85 7.5 8.25 7.5C8.65 7.5 9 7.65 9.3 7.95L13.05 11.7C13.35 12 13.5 12.35 13.5 12.75C13.5 13.15 13.35 13.5 13.05 13.8L9.3 17.55C9 17.85 8.65 18 8.25 18C7.85 18 7.5 17.85 7.2 17.55ZM15 33C14.575 33 14.219 32.856 13.932 32.568C13.645 32.28 13.501 31.924 13.5 31.5V25.5C12.25 25.4 11.0125 25.2625 9.7875 25.0875C8.5625 24.9125 7.3375 24.6875 6.1125 24.4125C5.6875 24.3125 5.344 24.075 5.082 23.7C4.82 23.325 4.751 22.925 4.875 22.5C4.999 22.075 5.2555 21.7625 5.6445 21.5625C6.0335 21.3625 6.4395 21.3125 6.8625 21.4125C8.6875 21.8375 10.5315 22.125 12.3945 22.275C14.2575 22.425 16.126 22.5 18 22.5C19.874 22.5 21.743 22.425 23.607 22.275C25.471 22.125 27.3145 21.8375 29.1375 21.4125C29.5625 21.3125 29.969 21.3625 30.357 21.5625C30.745 21.7625 31.001 22.075 31.125 22.5C31.249 22.925 31.1805 23.325 30.9195 23.7C30.6585 24.075 30.3145 24.3125 29.8875 24.4125C28.6625 24.6875 27.4375 24.9125 26.2125 25.0875C24.9875 25.2625 23.75 25.4 22.5 25.5V31.5C22.5 31.925 22.3565 32.2815 22.0695 32.5695C21.7825 32.8575 21.426 33.001 21 33H15ZM14.8125 9.1875C13.9375 8.3125 13.5 7.25 13.5 6C13.5 4.75 13.9375 3.6875 14.8125 2.8125C15.6875 1.9375 16.75 1.5 18 1.5C19.25 1.5 20.3125 1.9375 21.1875 2.8125C22.0625 3.6875 22.5 4.75 22.5 6C22.5 7.25 22.0625 8.3125 21.1875 9.1875C20.3125 10.0625 19.25 10.5 18 10.5C16.75 10.5 15.6875 10.0625 14.8125 9.1875ZM15.882 20.1195C15.294 19.5315 15 18.825 15 18C15 17.175 15.294 16.469 15.882 15.882C16.47 15.295 17.176 15.001 18 15C18.824 14.999 19.5305 15.293 20.1195 15.882C20.7085 16.471 21.002 17.177 21 18C20.998 18.823 20.7045 19.5295 20.1195 20.1195C19.5345 20.7095 18.828 21.003 18 21C17.172 20.997 16.466 20.7035 15.882 20.1195ZM25.1625 17.25L23.4375 14.25C23.3125 14.025 23.25 13.775 23.25 13.5C23.25 13.225 23.3125 12.975 23.4375 12.75L25.1625 9.75C25.2875 9.5 25.4625 9.3125 25.6875 9.1875C25.9125 9.0625 26.1625 9 26.4375 9H29.8125C30.0875 9 30.3375 9.0625 30.5625 9.1875C30.7875 9.3125 30.9625 9.5 31.0875 9.75L32.8125 12.75C32.9375 12.975 33 13.225 33 13.5C33 13.775 32.9375 14.025 32.8125 14.25L31.0875 17.25C30.9625 17.5 30.7875 17.6875 30.5625 17.8125C30.3375 17.9375 30.0875 18 29.8125 18H26.4375C26.1625 18 25.9125 17.9375 25.6875 17.8125C25.4625 17.6875 25.2875 17.5 25.1625 17.25Z" fill="white"/>
</svg>
